<svg xmlns="http://www.w3.org/2000/svg" xmlns:xlink="http://www.w3.org/1999/xlink" xmlns:lucid="lucid" width="1327.35" height="1449.5"><g transform="translate(2722.4999595238096 921)" lucid:page-tab-id="0_0"><path d="M-2661-584h-47.5a12 12 0 0 0-12 12v380a12 12 0 0 0 12 12h328" stroke="#333" fill="none"/><path d="M-2660.5-583.5h-.5v-1h.5z" stroke="#333" stroke-width=".05" fill="#333"/><path d="M-2360.72-170l-20-10 20-10" stroke="#333" fill="#fff" fill-opacity="0"/><path d="M-2360.72-180h-20M-2380.72-190v20" stroke="#333" fill="#fff"/><path d="M-2660-635a5 5 0 0 1 5-5h270a5 5 0 0 1 5 5v126a5 5 0 0 1-5 5h-270a5 5 0 0 1-5-5z" fill="#fff"/><path d="M-2660-600v-35a5 5 0 0 1 5-5h270a5 5 0 0 1 5 5v35" fill="#ccc"/><path d="M-2660-635a5 5 0 0 1 5-5h270a5 5 0 0 1 5 5v126a5 5 0 0 1-5 5h-270a5 5 0 0 1-5-5zM-2660-600h280M-2520-600v96" stroke="#333" fill="none"/><use xlink:href="#a" transform="matrix(1,0,0,1,-2650,-640) translate(85.94999999999999 23.6)"/><use xlink:href="#b" transform="matrix(1,0,0,1,-2655,-597.5) translate(0 17.1)"/><use xlink:href="#c" transform="matrix(1,0,0,1,-2515,-597.5) translate(0 17.1)"/><use xlink:href="#d" transform="matrix(1,0,0,1,-2515,-597.5) translate(29 17.1)"/><use xlink:href="#e" transform="matrix(1,0,0,1,-2515,-597.5) translate(99.75 17.1)"/><use xlink:href="#f" transform="matrix(1,0,0,1,-2655,-565.5) translate(0 17.1)"/><use xlink:href="#g" transform="matrix(1,0,0,1,-2515,-565.5) translate(0 17.1)"/><use xlink:href="#h" transform="matrix(1,0,0,1,-2655,-533.5) translate(0 17.1)"/><use xlink:href="#g" transform="matrix(1,0,0,1,-2515,-533.5) translate(0 17.1)"/><path d="M-1860-635a5 5 0 0 1 5-5h290a5 5 0 0 1 5 5v94a5 5 0 0 1-5 5h-290a5 5 0 0 1-5-5z" fill="#fff"/><path d="M-1860-600v-35a5 5 0 0 1 5-5h290a5 5 0 0 1 5 5v35" fill="#ccc"/><path d="M-1860-635a5 5 0 0 1 5-5h290a5 5 0 0 1 5 5v94a5 5 0 0 1-5 5h-290a5 5 0 0 1-5-5zM-1860-600h300M-1710-600v64" stroke="#333" fill="none"/><use xlink:href="#i" transform="matrix(1,0,0,1,-1850,-640) translate(66.77499999999999 23.6)"/><use xlink:href="#b" transform="matrix(1,0,0,1,-1855,-597.5) translate(0 17.1)"/><use xlink:href="#j" transform="matrix(1,0,0,1,-1705,-597.5) translate(0 17.1)"/><use xlink:href="#e" transform="matrix(1,0,0,1,-1705,-597.5) translate(94.75 17.1)"/><use xlink:href="#k" transform="matrix(1,0,0,1,-1855,-565.5) translate(0 17.1)"/><use xlink:href="#g" transform="matrix(1,0,0,1,-1705,-565.5) translate(0 17.1)"/><path d="M-2360-295a5 5 0 0 1 5-5h310a5 5 0 0 1 5 5v158a5 5 0 0 1-5 5h-310a5 5 0 0 1-5-5z" fill="#fff"/><path d="M-2360-260v-35a5 5 0 0 1 5-5h310a5 5 0 0 1 5 5v35" fill="#ccc"/><path d="M-2360-295a5 5 0 0 1 5-5h310a5 5 0 0 1 5 5v158a5 5 0 0 1-5 5h-310a5 5 0 0 1-5-5zM-2360-260h320M-2221.72-260v128" stroke="#333" fill="none"/><use xlink:href="#l" transform="matrix(1,0,0,1,-2350,-300) translate(105.75 23.6)"/><use xlink:href="#b" transform="matrix(1,0,0,1,-2355,-257.5) translate(0 17.1)"/><use xlink:href="#m" transform="matrix(1,0,0,1,-2216.7201654241385,-257.5) translate(0 17.1)"/><use xlink:href="#e" transform="matrix(1,0,0,1,-2216.7201654241385,-257.5) translate(124.75 17.1)"/><use xlink:href="#f" transform="matrix(1,0,0,1,-2355,-225.5) translate(0 17.1)"/><use xlink:href="#g" transform="matrix(1,0,0,1,-2216.7201654241385,-225.5) translate(0 17.1)"/><use xlink:href="#n" transform="matrix(1,0,0,1,-2355,-193.5) translate(0 17.1)"/><use xlink:href="#o" transform="matrix(1,0,0,1,-2216.7201654241385,-193.5) translate(0 17.1)"/><use xlink:href="#p" transform="matrix(1,0,0,1,-2355,-161.5) translate(0 17.1)"/><use xlink:href="#q" transform="matrix(1,0,0,1,-2216.7201654241385,-161.5) translate(0 17.1)"/><use xlink:href="#r" transform="matrix(1,0,0,1,-2216.7201654241385,-161.5) translate(27.950000000000003 17.1)"/><path d="M-2660-892a8 8 0 0 1 8-8h1226.45a8 8 0 0 1 8 8v42.8a8 8 0 0 1-8 8H-2652a8 8 0 0 1-8-8z" stroke="#000" stroke-opacity="0" stroke-width="2" fill="#fff" fill-opacity="0"/><use xlink:href="#s" transform="matrix(1,0,0,1,-2656,-896) translate(453.78901234567894 30.032777777777778)"/><use xlink:href="#t" transform="matrix(1,0,0,1,-2656,-896) translate(621.1741975308641 30.032777777777778)"/><path d="M-2503.6-843.13h925.04M-2503.57-843.13h-1.03" stroke="#a9afb8" stroke-width="2" fill="none"/><path d="M-1577.56-842.13h-1.03v-2h1.04z" stroke="#a9afb8" stroke-width=".05" fill="#a9afb8"/><path d="M-2660-833.2a8 8 0 0 1 8-8h1227.85a8 8 0 0 1 8 8v10.9a8 8 0 0 1-8 8H-2652a8 8 0 0 1-8-8z" stroke="#000" stroke-opacity="0" stroke-width="2" fill="#fff" fill-opacity="0"/><use xlink:href="#u" transform="matrix(1,0,0,1,-2655.9999999999995,-837.2068229187161) translate(483.0697222222222 14.917037037037037)"/><use xlink:href="#v" transform="matrix(1,0,0,1,-2655.9999999999995,-837.2068229187161) translate(544.977232510288 14.917037037037037)"/><use xlink:href="#w" transform="matrix(1,0,0,1,-2655.9999999999995,-837.2068229187161) translate(612.9607716049381 14.917037037037037)"/><use xlink:href="#x" transform="matrix(1,0,0,1,-2655.9999999999995,-837.2068229187161) translate(625.410257201646 14.917037037037037)"/><use xlink:href="#y" transform="matrix(1,0,0,1,-2655.9999999999995,-837.2068229187161) translate(700.0646810699587 14.917037037037037)"/><use xlink:href="#z" transform="matrix(1,0,0,1,-2655.9999999999995,-837.2068229187161) translate(725.5585082304526 14.917037037037037)"/><path d="M-1861.5-584h-82.5a6 6 0 0 0-6 6v424a6 6 0 0 1-6 6h-63.5" stroke="#5e5e5e" stroke-width="2" fill="none"/><path d="M-1860.5-583h-1.03v-2h1.03z" stroke="#5e5e5e" stroke-width=".05" fill="#5e5e5e"/><path d="M-2039.05-158l20 10-20 10" stroke="#5e5e5e" stroke-width="2" fill="#fff" fill-opacity="0"/><path d="M-2039.05-148h20M-2019.05-138v-20" stroke="#5e5e5e" stroke-width="2" fill="#fff"/><path d="M-1780 49a5 5 0 0 1 5-5h290a5 5 0 0 1 5 5v94a5 5 0 0 1-5 5h-290a5 5 0 0 1-5-5z" fill="#fff"/><path d="M-1780 84V49a5 5 0 0 1 5-5h290a5 5 0 0 1 5 5v35" fill="#ccc"/><path d="M-1780 49a5 5 0 0 1 5-5h290a5 5 0 0 1 5 5v94a5 5 0 0 1-5 5h-290a5 5 0 0 1-5-5zM-1780 84h300M-1630 84v64" stroke="#333" fill="none"/><use xlink:href="#A" transform="matrix(1,0,0,1,-1770,44) translate(115.525 23.6)"/><use xlink:href="#b" transform="matrix(1,0,0,1,-1775,86.5) translate(0 17.1)"/><use xlink:href="#B" transform="matrix(1,0,0,1,-1625,86.5) translate(0 17.1)"/><use xlink:href="#e" transform="matrix(1,0,0,1,-1625,86.5) translate(99.75 17.1)"/><use xlink:href="#k" transform="matrix(1,0,0,1,-1775,118.5) translate(0 17.1)"/><use xlink:href="#g" transform="matrix(1,0,0,1,-1625,118.5) translate(0 17.1)"/><path d="M-2340 65a5 5 0 0 1 5-5h310a5 5 0 0 1 5 5v190a5 5 0 0 1-5 5h-310a5 5 0 0 1-5-5z" fill="#fff"/><path d="M-2340 100V65a5 5 0 0 1 5-5h310a5 5 0 0 1 5 5v35" fill="#ccc"/><path d="M-2340 65a5 5 0 0 1 5-5h310a5 5 0 0 1 5 5v190a5 5 0 0 1-5 5h-310a5 5 0 0 1-5-5zM-2340 100h320M-2201.72 100v160" stroke="#333" fill="none"/><use xlink:href="#C" transform="matrix(1,0,0,1,-2330,60) translate(125.55 23.6)"/><use xlink:href="#b" transform="matrix(1,0,0,1,-2335,102.5) translate(0 17.1)"/><use xlink:href="#D" transform="matrix(1,0,0,1,-2196.7201654241385,102.5) translate(0 17.1)"/><use xlink:href="#e" transform="matrix(1,0,0,1,-2196.7201654241385,102.5) translate(119.75 17.1)"/><use xlink:href="#f" transform="matrix(1,0,0,1,-2335,134.5) translate(0 17.1)"/><use xlink:href="#g" transform="matrix(1,0,0,1,-2196.7201654241385,134.5) translate(0 17.1)"/><use xlink:href="#E" transform="matrix(1,0,0,1,-2335,166.5) translate(0 17.1)"/><use xlink:href="#g" transform="matrix(1,0,0,1,-2196.7201654241385,166.5) translate(0 17.1)"/><use xlink:href="#F" transform="matrix(1,0,0,1,-2335,198.5) translate(0 17.1)"/><use xlink:href="#o" transform="matrix(1,0,0,1,-2196.7201654241385,198.5) translate(0 17.1)"/><use xlink:href="#G" transform="matrix(1,0,0,1,-2335,230.5) translate(0 17.1)"/><use xlink:href="#q" transform="matrix(1,0,0,1,-2196.7201654241385,230.5) translate(0 17.1)"/><use xlink:href="#r" transform="matrix(1,0,0,1,-2196.7201654241385,230.5) translate(27.950000000000003 17.1)"/><path d="M-1781.5 100H-1894a6 6 0 0 0-6 6v132a6 6 0 0 1-6 6h-93.5" stroke="#5e5e5e" stroke-width="2" fill="none"/><path d="M-1780.5 101h-1.03v-2h1.03z" stroke="#5e5e5e" stroke-width=".05" fill="#5e5e5e"/><path d="M-2019.05 234l20 10-20 10" stroke="#5e5e5e" stroke-width="2" fill="#fff" fill-opacity="0"/><path d="M-2019.05 244h20M-1999.05 254v-20" stroke="#5e5e5e" stroke-width="2" fill="#fff"/><path d="M-2361.5-244h-72.5a6 6 0 0 0-6 6v444a6 6 0 0 0 6 6h73.5" stroke="#5e5e5e" stroke-width="2" fill="none"/><path d="M-2360.5-243h-1.03v-2h1.03z" stroke="#5e5e5e" stroke-width=".05" fill="#5e5e5e"/><path d="M-2340.95 222l-20-10 20-10" stroke="#5e5e5e" stroke-width="2" fill="#fff" fill-opacity="0"/><path d="M-2340.95 212h-20M-2360.95 202v20" stroke="#5e5e5e" stroke-width="2" fill="#fff"/><path d="M-2340 345a5 5 0 0 1 5-5h310a5 5 0 0 1 5 5v158a5 5 0 0 1-5 5h-310a5 5 0 0 1-5-5z" fill="#fff"/><path d="M-2340 380v-35a5 5 0 0 1 5-5h310a5 5 0 0 1 5 5v35" fill="#ccc"/><path d="M-2340 345a5 5 0 0 1 5-5h310a5 5 0 0 1 5 5v158a5 5 0 0 1-5 5h-310a5 5 0 0 1-5-5zM-2340 380h320M-2201.72 380v128" stroke="#333" fill="none"/><use xlink:href="#H" transform="matrix(1,0,0,1,-2330,340) translate(93.77499999999999 23.6)"/><g><use xlink:href="#b" transform="matrix(1,0,0,1,-2335,382.5) translate(0 17.1)"/></g><g><use xlink:href="#D" transform="matrix(1,0,0,1,-2196.7201654241385,382.5) translate(0 17.1)"/><use xlink:href="#e" transform="matrix(1,0,0,1,-2196.7201654241385,382.5) translate(119.75 17.1)"/></g><g><use xlink:href="#I" transform="matrix(1,0,0,1,-2335,414.5) translate(0 17.1)"/></g><g><use xlink:href="#o" transform="matrix(1,0,0,1,-2196.7201654241385,414.5) translate(0 17.1)"/></g><g><use xlink:href="#J" transform="matrix(1,0,0,1,-2335,446.5) translate(0 17.1)"/></g><g><use xlink:href="#K" transform="matrix(1,0,0,1,-2196.7201654241385,446.5) translate(0 17.1)"/></g><g><use xlink:href="#L" transform="matrix(1,0,0,1,-2335,478.5) translate(0 17.1)"/></g><g><use xlink:href="#M" transform="matrix(1,0,0,1,-2196.7201654241385,478.5) translate(0 17.1)"/></g><path d="M-2341.5 116h-62.5a6 6 0 0 0-6 6v300a6 6 0 0 0 6 6h43.5" stroke="#5e5e5e" stroke-width="2" fill="none"/><path d="M-2340.5 117h-1.03v-2h1.03z" stroke="#5e5e5e" stroke-width=".05" fill="#5e5e5e"/><path d="M-2340.95 438l-20-10 20-10" stroke="#5e5e5e" stroke-width="2" fill="#fff" fill-opacity="0"/><path d="M-2340.95 428h-20M-2360.95 418v20" stroke="#5e5e5e" stroke-width="2" fill="#fff"/><defs><path fill="#333" d="M125-24c46 0 70-25 89-51l25 16C214-24 183 4 123 4 8 4-5-146 60-208c32-50 158-61 191-5 5 7 9 14 11 22l-32 10c-9-28-33-43-69-43-74 0-108 51-108 125 0 46 24 75 72 75" id="N"/><path fill="#333" d="M20-101c0-91 52-143 145-150 126-9 127 168 53 223-23 17-55 32-93 32C57 4 20-33 20-101zm216-33c5-57-18-91-73-90-77 1-110 51-110 125 0 49 23 75 73 75 72-1 104-45 110-110" id="O"/><path fill="#333" d="M62-99C39-31 123 0 170-40s38-139 58-208h34C234-144 253 4 115 4 49 4 18-43 31-112l26-136h34" id="P"/><path fill="#333" d="M173 0L80-213 41 0H11l48-248h37l94 214 40-214h30L212 0h-39" id="Q"/><path fill="#333" d="M151-220L108 0H75l42-220H32l6-28h203l-5 28h-85" id="R"/><path fill="#333" d="M249-183c0 48-29 72-75 77L221 0h-36l-43-103H65L45 0H11l48-248c83 2 190-17 190 65zm-34 3c0-55-74-39-127-41l-18 92c63-1 145 13 145-51" id="S"/><path fill="#333" d="M138-103L118 0H85l20-103-68-145h35l54 119 98-119h38" id="T"/><g id="a"><use transform="matrix(0.05,0,0,0.05,0,0)" xlink:href="#N"/><use transform="matrix(0.05,0,0,0.05,12.950000000000001,0)" xlink:href="#O"/><use transform="matrix(0.05,0,0,0.05,26.950000000000003,0)" xlink:href="#P"/><use transform="matrix(0.05,0,0,0.05,39.900000000000006,0)" xlink:href="#Q"/><use transform="matrix(0.05,0,0,0.05,52.85,0)" xlink:href="#R"/><use transform="matrix(0.05,0,0,0.05,63.80000000000001,0)" xlink:href="#S"/><use transform="matrix(0.05,0,0,0.05,76.10000000000001,0)" xlink:href="#T"/></g><path fill="#333" d="M14 0l48-248h34L48 0H14" id="U"/><path fill="#333" d="M248-139C247-14 144 9 11 0l48-248c105-6 190 8 189 109zm-34 0c1-70-52-87-126-82L50-27c98 7 163-21 164-112" id="V"/><g id="b"><use transform="matrix(0.05,0,0,0.05,0,0)" xlink:href="#U"/><use transform="matrix(0.05,0,0,0.05,5,0)" xlink:href="#V"/></g><path fill="#333" d="M238-179c0 84-86 86-175 82L45 0H11l48-248c82 0 179-12 179 69zm-34 1c0-53-64-42-116-43l-19 98c63 0 135 9 135-55" id="W"/><path fill="#333" d="M180 0L97-118 63-96 45 0H11l48-248h34L69-126c44-43 94-81 141-122h43L121-137 219 0h-39" id="X"/><g id="c"><use transform="matrix(0.05,0,0,0.05,0,0)" xlink:href="#W"/><use transform="matrix(0.05,0,0,0.05,12,0)" xlink:href="#X"/></g><path fill="#333" d="M17-49c1-102 45-165 103-212h30C92-210 49-145 49-46 49 4 63 43 85 75H54C30 43 18 2 17-49" id="Y"/><path fill="#333" d="M98-137C97-35 54 29-4 75h-31C23 23 67-41 67-140c0-50-15-89-37-121h31c24 32 36 73 37 124" id="Z"/><g id="d"><use transform="matrix(0.05,0,0,0.05,0,0)" xlink:href="#Y"/><use transform="matrix(0.05,0,0,0.05,5.95,0)" xlink:href="#P"/><use transform="matrix(0.05,0,0,0.05,18.900000000000002,0)" xlink:href="#P"/><use transform="matrix(0.05,0,0,0.05,31.85,0)" xlink:href="#U"/><use transform="matrix(0.05,0,0,0.05,36.85,0)" xlink:href="#V"/><use transform="matrix(0.05,0,0,0.05,49.800000000000004,0)" xlink:href="#Z"/></g><path fill="#333" d="M155 0L90-199 52 0H6l48-248h62l66 201 38-201h46L218 0h-63" id="aa"/><g id="e"><use transform="matrix(0.05,0,0,0.05,0,0)" xlink:href="#aa"/><use transform="matrix(0.05,0,0,0.05,12.950000000000001,0)" xlink:href="#aa"/></g><path fill="#333" d="M165-48c-4 18 1 34 23 27l-3 20c-29 8-62 0-52-35h-2C116-14 99 4 63 4 30 4 8-16 8-49c0-68 71-67 138-67 10-26 0-56-31-54-26 1-42 9-47 31l-32-5c8-67 160-71 144 15-5 28-9 54-15 81zM42-50c3 52 80 24 89-6 7-12 7-24 11-38-47 1-103-4-100 44" id="ab"/><path fill="#333" d="M248-111c6-24 9-61-24-58-72 9-57 108-77 169h-31l26-142c3-37-50-30-64-10C52-115 50-51 37 0H6l36-190h30c-1 10-6 24-4 32 13-43 101-52 105 5 13-22 29-41 61-41 90 0 28 129 23 194h-31" id="ac"/><path fill="#333" d="M111-194c62-3 86 47 72 106H45c-7 38 6 69 45 68 27-1 43-14 53-32l24 11C152-15 129 4 87 4 38 3 12-23 12-71c0-70 32-119 99-123zm44 81c14-66-71-72-95-28-4 8-8 17-11 28h106" id="ad"/><g id="f"><use transform="matrix(0.05,0,0,0.05,0,0)" xlink:href="#Q"/><use transform="matrix(0.05,0,0,0.05,12.950000000000001,0)" xlink:href="#ab"/><use transform="matrix(0.05,0,0,0.05,22.950000000000003,0)" xlink:href="#ac"/><use transform="matrix(0.05,0,0,0.05,37.900000000000006,0)" xlink:href="#ad"/></g><path fill="#333" d="M67-158c15-20 31-36 64-36 94 0 33 127 27 194h-32l25-140c3-38-53-32-70-12C52-117 51-51 37 0H6l51-261h31" id="ae"/><path fill="#333" d="M66-151c12-25 30-51 66-40l-6 26C45-176 58-65 38 0H6l36-190h30" id="af"/><path fill="#333" d="M44-68c0 29 11 47 38 47 30 0 42-19 51-41l28 9C148-21 126 4 82 4 31 4 10-29 12-85c3-77 74-140 146-93 12 8 15 23 18 40l-31 5c-1-22-13-36-36-36-52 0-65 49-65 101" id="ag"/><path fill="#333" d="M51-54c-9 22 5 41 31 30L79-1C43 14 10-4 19-52l22-115H19l5-23h22l19-43h21l-9 43h35l-4 23H73" id="ah"/><path fill="#333" d="M151-85c6-55-69-56-94-29H26l34-134h141l-5 27H84l-20 79c41-34 127-11 121 53C199 13 30 38 8-54l29-8C52 0 159-13 151-85" id="ai"/><path fill="#333" d="M16-82c0-90 25-169 113-169 48 0 68 33 68 82C197-79 170 4 84 4 37 4 16-31 16-82zm30 5c0 32 11 55 40 55 69 0 76-79 80-149 2-32-10-55-39-55-69 0-81 81-81 149" id="aj"/><g id="g"><use transform="matrix(0.05,0,0,0.05,0,0)" xlink:href="#N"/><use transform="matrix(0.05,0,0,0.05,12.950000000000001,0)" xlink:href="#ae"/><use transform="matrix(0.05,0,0,0.05,22.950000000000003,0)" xlink:href="#ab"/><use transform="matrix(0.05,0,0,0.05,32.95,0)" xlink:href="#af"/><use transform="matrix(0.05,0,0,0.05,38.900000000000006,0)" xlink:href="#ab"/><use transform="matrix(0.05,0,0,0.05,48.900000000000006,0)" xlink:href="#ag"/><use transform="matrix(0.05,0,0,0.05,57.900000000000006,0)" xlink:href="#ah"/><use transform="matrix(0.05,0,0,0.05,62.900000000000006,0)" xlink:href="#ad"/><use transform="matrix(0.05,0,0,0.05,72.9,0)" xlink:href="#af"/><use transform="matrix(0.05,0,0,0.05,78.85000000000001,0)" xlink:href="#Y"/><use transform="matrix(0.05,0,0,0.05,84.80000000000001,0)" xlink:href="#ai"/><use transform="matrix(0.05,0,0,0.05,94.80000000000001,0)" xlink:href="#aj"/><use transform="matrix(0.05,0,0,0.05,104.80000000000001,0)" xlink:href="#Z"/></g><path fill="#333" d="M103-194c29 0 47 14 56 36 2-11 5-23 8-32h30L160-5C157 61 82 97 21 62 9 55 4 45 1 30l28-7c7 42 83 31 92-3 4-16 9-38 13-55-13 20-29 36-62 36-40 0-60-25-60-64 0-71 23-131 91-131zm4 24c-53 0-58 54-61 104-2 27 10 44 36 44 49 0 65-50 67-102 1-29-15-46-42-46" id="ak"/><path fill="#333" d="M50-231l6-30h32l-6 30H50zM6 0l37-190h31L37 0H6" id="al"/><path fill="#333" d="M30-147c31-64 166-65 159 27C183-49 158 1 86 4 9 8 1-88 30-147zM88-20c53 0 68-48 68-100 0-31-11-51-44-50-52 1-68 46-68 97 0 32 13 53 44 53" id="am"/><path fill="#333" d="M67-158c22-48 132-52 116 29L158 0h-32l25-140c3-38-53-32-70-12C52-117 51-52 38 0H6l36-190h30" id="an"/><g id="h"><use transform="matrix(0.05,0,0,0.05,0,0)" xlink:href="#S"/><use transform="matrix(0.05,0,0,0.05,12.950000000000001,0)" xlink:href="#ad"/><use transform="matrix(0.05,0,0,0.05,22.950000000000003,0)" xlink:href="#ak"/><use transform="matrix(0.05,0,0,0.05,32.95,0)" xlink:href="#al"/><use transform="matrix(0.05,0,0,0.05,36.900000000000006,0)" xlink:href="#am"/><use transform="matrix(0.05,0,0,0.05,46.900000000000006,0)" xlink:href="#an"/></g><path fill="#333" d="M222 0l43-216c-8 16-17 34-26 49L143 0h-22L81-216 41 0H11l48-248h42l38 208 116-208h45L252 0h-30" id="ao"/><path fill="#333" d="M187 0l-14-72H61L19 0h-37l149-248h38L221 0h-34zm-19-99l-22-123L76-99h92" id="ap"/><path fill="#333" d="M-28 44V31h207v13H-28" id="aq"/><path fill="#333" d="M11 0l48-248h184l-5 28H87l-15 79h140l-5 27H67L50-27h158l-5 27H11" id="ar"/><g id="i"><use transform="matrix(0.05,0,0,0.05,0,0)" xlink:href="#N"/><use transform="matrix(0.05,0,0,0.05,12.950000000000001,0)" xlink:href="#O"/><use transform="matrix(0.05,0,0,0.05,26.950000000000003,0)" xlink:href="#ao"/><use transform="matrix(0.05,0,0,0.05,41.900000000000006,0)" xlink:href="#W"/><use transform="matrix(0.05,0,0,0.05,52.550000000000004,0)" xlink:href="#ap"/><use transform="matrix(0.05,0,0,0.05,64.55000000000001,0)" xlink:href="#Q"/><use transform="matrix(0.05,0,0,0.05,77.50000000000001,0)" xlink:href="#T"/><use transform="matrix(0.05,0,0,0.05,89.50000000000001,0)" xlink:href="#aq"/><use transform="matrix(0.05,0,0,0.05,99.50000000000001,0)" xlink:href="#R"/><use transform="matrix(0.05,0,0,0.05,110.45,0)" xlink:href="#T"/><use transform="matrix(0.05,0,0,0.05,122.45,0)" xlink:href="#W"/><use transform="matrix(0.05,0,0,0.05,134.45000000000002,0)" xlink:href="#ar"/></g><g id="j"><use transform="matrix(0.05,0,0,0.05,0,0)" xlink:href="#W"/><use transform="matrix(0.05,0,0,0.05,12,0)" xlink:href="#X"/><use transform="matrix(0.05,0,0,0.05,24,0)" xlink:href="#Y"/><use transform="matrix(0.05,0,0,0.05,29.950000000000003,0)" xlink:href="#P"/><use transform="matrix(0.05,0,0,0.05,42.9,0)" xlink:href="#P"/><use transform="matrix(0.05,0,0,0.05,55.85,0)" xlink:href="#U"/><use transform="matrix(0.05,0,0,0.05,60.85,0)" xlink:href="#V"/><use transform="matrix(0.05,0,0,0.05,73.8,0)" xlink:href="#Z"/></g><path fill="#333" d="M133-28C103 26-5 8 13-77c13-62 24-115 90-117 29-1 46 15 56 35l19-102h32L160 0h-30zM45-64c-2 27 10 43 35 43 54-1 69-50 69-103 0-29-15-46-42-46-53-1-58 58-62 106" id="as"/><path fill="#333" d="M55-144c13 50 104 24 104 88C159 21 15 23 1-39l26-10c6 40 102 42 102-4-13-50-104-23-104-87 0-71 143-71 148-8l-29 4c-5-35-85-37-89 0" id="at"/><path fill="#333" d="M67-162c32-53 139-36 121 50C175-51 163 2 97 4 68 4 52-11 42-31 38 6 28 39 22 75H-9l50-265h29c-1 10 0 20-3 28zm89 36c0-26-10-43-35-43-54 0-67 50-69 103-1 29 14 45 42 46 53 0 62-58 62-106" id="au"/><g id="k"><use transform="matrix(0.05,0,0,0.05,0,0)" xlink:href="#as"/><use transform="matrix(0.05,0,0,0.05,10,0)" xlink:href="#ad"/><use transform="matrix(0.05,0,0,0.05,20,0)" xlink:href="#at"/><use transform="matrix(0.05,0,0,0.05,29,0)" xlink:href="#ag"/><use transform="matrix(0.05,0,0,0.05,38,0)" xlink:href="#af"/><use transform="matrix(0.05,0,0,0.05,43.95,0)" xlink:href="#al"/><use transform="matrix(0.05,0,0,0.05,47.900000000000006,0)" xlink:href="#au"/><use transform="matrix(0.05,0,0,0.05,57.900000000000006,0)" xlink:href="#ah"/><use transform="matrix(0.05,0,0,0.05,62.900000000000006,0)" xlink:href="#al"/><use transform="matrix(0.05,0,0,0.05,66.85000000000001,0)" xlink:href="#am"/><use transform="matrix(0.05,0,0,0.05,76.85000000000001,0)" xlink:href="#an"/></g><g id="l"><use transform="matrix(0.05,0,0,0.05,0,0)" xlink:href="#N"/><use transform="matrix(0.05,0,0,0.05,12.950000000000001,0)" xlink:href="#O"/><use transform="matrix(0.05,0,0,0.05,26.950000000000003,0)" xlink:href="#ao"/><use transform="matrix(0.05,0,0,0.05,41.900000000000006,0)" xlink:href="#W"/><use transform="matrix(0.05,0,0,0.05,52.550000000000004,0)" xlink:href="#ap"/><use transform="matrix(0.05,0,0,0.05,64.55000000000001,0)" xlink:href="#Q"/><use transform="matrix(0.05,0,0,0.05,77.50000000000001,0)" xlink:href="#T"/></g><g id="m"><use transform="matrix(0.05,0,0,0.05,0,0)" xlink:href="#W"/><use transform="matrix(0.05,0,0,0.05,12,0)" xlink:href="#X"/><use transform="matrix(0.05,0,0,0.05,24,0)" xlink:href="#Y"/><use transform="matrix(0.05,0,0,0.05,29.950000000000003,0)" xlink:href="#P"/><use transform="matrix(0.05,0,0,0.05,42.9,0)" xlink:href="#P"/><use transform="matrix(0.05,0,0,0.05,55.85,0)" xlink:href="#U"/><use transform="matrix(0.05,0,0,0.05,60.85,0)" xlink:href="#V"/><use transform="matrix(0.05,0,0,0.05,73.8,0)" xlink:href="#Z"/></g><path fill="#333" d="M67 3c-93-2-31-127-26-193h32L48-50c-3 39 53 32 70 12 30-34 30-101 43-152h32L157 0h-30c1-10 6-24 4-33-14 20-29 37-64 36" id="av"/><path fill="#333" d="M198-190L69 30C53 58 25 83-20 72c4-11-1-27 19-22 33-1 43-29 59-52L20-190h32L79-34l84-156h35" id="aw"/><g id="n"><use transform="matrix(0.05,0,0,0.05,0,0)" xlink:href="#N"/><use transform="matrix(0.05,0,0,0.05,12.950000000000001,0)" xlink:href="#am"/><use transform="matrix(0.05,0,0,0.05,22.950000000000003,0)" xlink:href="#av"/><use transform="matrix(0.05,0,0,0.05,32.95,0)" xlink:href="#an"/><use transform="matrix(0.05,0,0,0.05,42.95,0)" xlink:href="#ah"/><use transform="matrix(0.05,0,0,0.05,47.95,0)" xlink:href="#af"/><use transform="matrix(0.05,0,0,0.05,53.900000000000006,0)" xlink:href="#aw"/><use transform="matrix(0.05,0,0,0.05,62.900000000000006,0)" xlink:href="#aq"/><use transform="matrix(0.05,0,0,0.05,72.9,0)" xlink:href="#al"/><use transform="matrix(0.05,0,0,0.05,76.85000000000001,0)" xlink:href="#as"/></g><path fill="#333" d="M87-220l-18 92h140l-5 28H64L45 0H11l48-248h178l-5 28H87" id="ax"/><g id="o"><use transform="matrix(0.05,0,0,0.05,0,0)" xlink:href="#ax"/><use transform="matrix(0.05,0,0,0.05,10.950000000000001,0)" xlink:href="#X"/><use transform="matrix(0.05,0,0,0.05,22.950000000000003,0)" xlink:href="#Y"/><use transform="matrix(0.05,0,0,0.05,28.900000000000002,0)" xlink:href="#P"/><use transform="matrix(0.05,0,0,0.05,41.85,0)" xlink:href="#P"/><use transform="matrix(0.05,0,0,0.05,54.800000000000004,0)" xlink:href="#U"/><use transform="matrix(0.05,0,0,0.05,59.800000000000004,0)" xlink:href="#V"/><use transform="matrix(0.05,0,0,0.05,72.75,0)" xlink:href="#Z"/></g><g id="p"><use transform="matrix(0.05,0,0,0.05,0,0)" xlink:href="#ah"/><use transform="matrix(0.05,0,0,0.05,5,0)" xlink:href="#aw"/><use transform="matrix(0.05,0,0,0.05,14,0)" xlink:href="#au"/><use transform="matrix(0.05,0,0,0.05,24,0)" xlink:href="#ad"/><use transform="matrix(0.05,0,0,0.05,34,0)" xlink:href="#aq"/><use transform="matrix(0.05,0,0,0.05,44,0)" xlink:href="#al"/><use transform="matrix(0.05,0,0,0.05,47.95,0)" xlink:href="#as"/></g><g id="q"><use transform="matrix(0.05,0,0,0.05,0,0)" xlink:href="#ax"/><use transform="matrix(0.05,0,0,0.05,10.950000000000001,0)" xlink:href="#X"/></g><g id="r"><use transform="matrix(0.05,0,0,0.05,0,0)" xlink:href="#Y"/><use transform="matrix(0.05,0,0,0.05,5.95,0)" xlink:href="#P"/><use transform="matrix(0.05,0,0,0.05,18.900000000000002,0)" xlink:href="#P"/><use transform="matrix(0.05,0,0,0.05,31.85,0)" xlink:href="#U"/><use transform="matrix(0.05,0,0,0.05,36.85,0)" xlink:href="#V"/><use transform="matrix(0.05,0,0,0.05,49.800000000000004,0)" xlink:href="#Z"/></g><path fill="#a9afb8" d="M230 0l2-204L168 0h-37L68-204 70 0H24v-248h70l56 185 57-185h69V0h-46" id="ay"/><path fill="#a9afb8" d="M25-224v-37h50v37H25zM25 0v-190h50V0H25" id="az"/><path fill="#a9afb8" d="M190-63c-7 42-38 67-86 67-59 0-84-38-90-98-12-110 154-137 174-36l-49 2c-2-19-15-32-35-32-30 0-35 28-38 64-6 74 65 87 74 30" id="aA"/><path fill="#a9afb8" d="M135-150c-39-12-60 13-60 57V0H25l-1-190h47c2 13-1 29 3 40 6-28 27-53 61-41v41" id="aB"/><path fill="#a9afb8" d="M110-194c64 0 96 36 96 99 0 64-35 99-97 99-61 0-95-36-95-99 0-62 34-99 96-99zm-1 164c35 0 45-28 45-65 0-40-10-65-43-65-34 0-45 26-45 65 0 36 10 65 43 65" id="aC"/><path fill="#a9afb8" d="M137-138c1-29-70-34-71-4 15 46 118 7 119 86 1 83-164 76-172 9l43-7c4 19 20 25 44 25 33 8 57-30 24-41C81-84 22-81 20-136c-2-80 154-74 161-7" id="aD"/><path fill="#a9afb8" d="M185-48c-13 30-37 53-82 52C43 2 14-33 14-96s30-98 90-98c62 0 83 45 84 108H66c0 31 8 55 39 56 18 0 30-7 34-22zm-45-69c5-46-57-63-70-21-2 6-4 13-4 21h74" id="aE"/><path fill="#a9afb8" d="M128 0H69L1-190h53L99-40l48-150h52" id="aF"/><g id="s"><use transform="matrix(0.0728395061728395,0,0,0.0728395061728395,0,0)" xlink:href="#ay"/><use transform="matrix(0.0728395061728395,0,0,0.0728395061728395,21.77901234567901,0)" xlink:href="#az"/><use transform="matrix(0.0728395061728395,0,0,0.0728395061728395,29.06296296296296,0)" xlink:href="#aA"/><use transform="matrix(0.0728395061728395,0,0,0.0728395061728395,43.63086419753086,0)" xlink:href="#aB"/><use transform="matrix(0.0728395061728395,0,0,0.0728395061728395,53.82839506172839,0)" xlink:href="#aC"/><use transform="matrix(0.0728395061728395,0,0,0.0728395061728395,69.78024691358024,0)" xlink:href="#aD"/><use transform="matrix(0.0728395061728395,0,0,0.0728395061728395,84.34814814814814,0)" xlink:href="#aE"/><use transform="matrix(0.0728395061728395,0,0,0.0728395061728395,98.91604938271605,0)" xlink:href="#aB"/><use transform="matrix(0.0728395061728395,0,0,0.0728395061728395,109.11358024691359,0)" xlink:href="#aF"/><use transform="matrix(0.0728395061728395,0,0,0.0728395061728395,123.68148148148147,0)" xlink:href="#az"/><use transform="matrix(0.0728395061728395,0,0,0.0728395061728395,130.96543209876543,0)" xlink:href="#aA"/><use transform="matrix(0.0728395061728395,0,0,0.0728395061728395,145.53333333333333,0)" xlink:href="#aE"/></g><path fill="#a9afb8" d="M175 0L67-191c6 58 2 128 3 191H24v-248h59L193-55c-6-58-2-129-3-193h46V0h-61" id="aG"/><path fill="#a9afb8" d="M24-248c93 1 206-16 204 79-1 75-69 88-152 82V0H24v-248zm52 121c47 0 100 7 100-41 0-47-54-39-100-39v80" id="aH"/><path fill="#a9afb8" d="M169-182c-1-43-94-46-97-3 18 66 151 10 154 114 3 95-165 93-204 36-6-8-10-19-12-30l50-8c3 46 112 56 116 5-17-69-150-10-154-114-4-87 153-88 188-35 5 8 8 18 10 28" id="aI"/><path fill="#a9afb8" d="M-4 44V30h207v14H-4" id="aJ"/><path fill="#a9afb8" d="M240-174c0 40-23 61-54 70L253 0h-59l-57-94H76V0H24v-248c93 4 217-23 216 74zM76-134c48-2 112 12 112-38 0-48-66-32-112-35v73" id="aK"/><path fill="#a9afb8" d="M199 0l-22-63H83L61 0H9l90-248h61L250 0h-51zm-33-102l-36-108c-10 38-24 72-36 108h72" id="aL"/><path fill="#a9afb8" d="M136-208V0H84v-208H4v-40h212v40h-80" id="aM"/><path fill="#a9afb8" d="M24 0v-248h52V0H24" id="aN"/><path fill="#a9afb8" d="M67-125c0 54 23 88 75 88 28 0 53-7 68-21v-34h-60v-39h108v91C232-14 192 4 140 4 58 4 20-42 15-125 8-236 126-280 215-234c19 10 29 26 37 47l-47 15c-11-23-29-39-63-39-53 1-75 33-75 86" id="aO"/><g id="t"><use transform="matrix(0.0728395061728395,0,0,0.0728395061728395,0,0)" xlink:href="#aG"/><use transform="matrix(0.0728395061728395,0,0,0.0728395061728395,18.86543209876543,0)" xlink:href="#aH"/><use transform="matrix(0.0728395061728395,0,0,0.0728395061728395,36.34691358024691,0)" xlink:href="#aI"/><use transform="matrix(0.0728395061728395,0,0,0.0728395061728395,53.82839506172839,0)" xlink:href="#aJ"/><use transform="matrix(0.0728395061728395,0,0,0.0728395061728395,68.3962962962963,0)" xlink:href="#aK"/><use transform="matrix(0.0728395061728395,0,0,0.0728395061728395,87.26172839506174,0)" xlink:href="#aL"/><use transform="matrix(0.0728395061728395,0,0,0.0728395061728395,104.16049382716051,0)" xlink:href="#aM"/><use transform="matrix(0.0728395061728395,0,0,0.0728395061728395,120.11234567901236,0)" xlink:href="#aN"/><use transform="matrix(0.0728395061728395,0,0,0.0728395061728395,127.39629629629631,0)" xlink:href="#aG"/><use transform="matrix(0.0728395061728395,0,0,0.0728395061728395,146.26172839506174,0)" xlink:href="#aO"/></g><path fill="#a9afb8" d="M106-169C34-169 62-67 57 0H25v-261h32l-1 103c12-21 28-36 61-36 89 0 53 116 60 194h-32v-121c2-32-8-49-39-48" id="aP"/><path fill="#a9afb8" d="M141-36C126-15 110 5 73 4 37 3 15-17 15-53c-1-64 63-63 125-63 3-35-9-54-41-54-24 1-41 7-42 31l-33-3c5-37 33-52 76-52 45 0 72 20 72 64v82c-1 20 7 32 28 27v20c-31 9-61-2-59-35zM48-53c0 20 12 33 32 33 41-3 63-29 60-74-43 2-92-5-92 41" id="aQ"/><path fill="#a9afb8" d="M210-169c-67 3-38 105-44 169h-31v-121c0-29-5-50-35-48C34-165 62-65 56 0H25l-1-190h30c1 10-1 24 2 32 10-44 99-50 107 0 11-21 27-35 58-36 85-2 47 119 55 194h-31v-121c0-29-5-49-35-48" id="aR"/><path fill="#a9afb8" d="M24-231v-30h32v30H24zM24 0v-190h32V0H24" id="aS"/><path fill="#a9afb8" d="M24 0v-261h32V0H24" id="aT"/><path fill="#a9afb8" d="M59-47c-2 24 18 29 38 22v24C64 9 27 4 27-40v-127H5v-23h24l9-43h21v43h35v23H59v120" id="aU"/><path fill="#a9afb8" d="M100-194c62-1 85 37 85 99 1 63-27 99-86 99S16-35 15-95c0-66 28-99 85-99zM99-20c44 1 53-31 53-75 0-43-8-75-51-75s-53 32-53 75 10 74 51 75" id="aV"/><path fill="#a9afb8" d="M117-194c89-4 53 116 60 194h-32v-121c0-31-8-49-39-48C34-167 62-67 57 0H25l-1-190h30c1 10-1 24 2 32 11-22 29-35 61-36" id="aW"/><g id="u"><use transform="matrix(0.04248971193415638,0,0,0.04248971193415638,0,0)" xlink:href="#aP"/><use transform="matrix(0.04248971193415638,0,0,0.04248971193415638,8.497942386831275,0)" xlink:href="#aQ"/><use transform="matrix(0.04248971193415638,0,0,0.04248971193415638,16.99588477366255,0)" xlink:href="#aR"/><use transform="matrix(0.04248971193415638,0,0,0.04248971193415638,29.7003086419753,0)" xlink:href="#aS"/><use transform="matrix(0.04248971193415638,0,0,0.04248971193415638,33.056995884773656,0)" xlink:href="#aT"/><use transform="matrix(0.04248971193415638,0,0,0.04248971193415638,36.41368312757201,0)" xlink:href="#aU"/><use transform="matrix(0.04248971193415638,0,0,0.04248971193415638,40.66265432098764,0)" xlink:href="#aV"/><use transform="matrix(0.04248971193415638,0,0,0.04248971193415638,49.16059670781892,0)" xlink:href="#aW"/></g><path fill="#a9afb8" d="M185-189c-5-48-123-54-124 2 14 75 158 14 163 119 3 78-121 87-175 55-17-10-28-26-33-46l33-7c5 56 141 63 141-1 0-78-155-14-162-118-5-82 145-84 179-34 5 7 8 16 11 25" id="aX"/><path fill="#a9afb8" d="M96-169c-40 0-48 33-48 73s9 75 48 75c24 0 41-14 43-38l32 2c-6 37-31 61-74 61-59 0-76-41-82-99-10-93 101-131 147-64 4 7 5 14 7 22l-32 3c-4-21-16-35-41-35" id="aY"/><path fill="#a9afb8" d="M100-194c63 0 86 42 84 106H49c0 40 14 67 53 68 26 1 43-12 49-29l28 8c-11 28-37 45-77 45C44 4 14-33 15-96c1-61 26-98 85-98zm52 81c6-60-76-77-97-28-3 7-6 17-6 28h103" id="aZ"/><path fill="#a9afb8" d="M9 0v-24l116-142H16v-24h144v24L44-24h123V0H9" id="ba"/><g id="v"><use transform="matrix(0.04248971193415638,0,0,0.04248971193415638,0,0)" xlink:href="#aX"/><use transform="matrix(0.04248971193415638,0,0,0.04248971193415638,10.19753086419753,0)" xlink:href="#aQ"/><use transform="matrix(0.04248971193415638,0,0,0.04248971193415638,18.695473251028805,0)" xlink:href="#aW"/><use transform="matrix(0.04248971193415638,0,0,0.04248971193415638,27.193415637860078,0)" xlink:href="#aY"/><use transform="matrix(0.04248971193415638,0,0,0.04248971193415638,34.84156378600822,0)" xlink:href="#aP"/><use transform="matrix(0.04248971193415638,0,0,0.04248971193415638,43.3395061728395,0)" xlink:href="#aZ"/><use transform="matrix(0.04248971193415638,0,0,0.04248971193415638,51.83744855967078,0)" xlink:href="#ba"/></g><path fill="#a9afb8" d="M32 76v-337h29V76H32" id="bb"/><use transform="matrix(0.04248971193415638,0,0,0.04248971193415638,0,0)" xlink:href="#bb" id="w"/><path fill="#a9afb8" d="M190 0L58-211 59 0H30v-248h39L202-35l-2-213h31V0h-41" id="bc"/><path fill="#a9afb8" d="M108 0H70L1-190h34L89-25l56-165h34" id="bd"/><path fill="#a9afb8" d="M115-194c53 0 69 39 70 98 0 66-23 100-70 100C84 3 66-7 56-30L54 0H23l1-261h32v101c10-23 28-34 59-34zm-8 174c40 0 45-34 45-75 0-40-5-75-45-74-42 0-51 32-51 76 0 43 10 73 51 73" id="be"/><path fill="#a9afb8" d="M114-163C36-179 61-72 57 0H25l-1-190h30c1 12-1 29 2 39 6-27 23-49 58-41v29" id="bf"/><g id="x"><use transform="matrix(0.04248971193415638,0,0,0.04248971193415638,0,0)" xlink:href="#bc"/><use transform="matrix(0.04248971193415638,0,0,0.04248971193415638,11.004835390946502,0)" xlink:href="#aV"/><use transform="matrix(0.04248971193415638,0,0,0.04248971193415638,19.502777777777776,0)" xlink:href="#bd"/><use transform="matrix(0.04248971193415638,0,0,0.04248971193415638,27.150925925925925,0)" xlink:href="#aZ"/><use transform="matrix(0.04248971193415638,0,0,0.04248971193415638,35.6488683127572,0)" xlink:href="#aR"/><use transform="matrix(0.04248971193415638,0,0,0.04248971193415638,48.35329218106995,0)" xlink:href="#be"/><use transform="matrix(0.04248971193415638,0,0,0.04248971193415638,56.851234567901244,0)" xlink:href="#aZ"/><use transform="matrix(0.04248971193415638,0,0,0.04248971193415638,65.34917695473251,0)" xlink:href="#bf"/></g><path fill="#a9afb8" d="M101-251c82-7 93 87 43 132L82-64C71-53 59-42 53-27h129V0H18c2-99 128-94 128-182 0-28-16-43-45-43s-46 15-49 41l-32-3c6-41 34-60 81-64" id="bg"/><path fill="#a9afb8" d="M27 0v-27h64v-190l-56 39v-29l58-41h29v221h61V0H27" id="bh"/><path fill="#a9afb8" d="M68-38c1 34 0 65-14 84H32c9-13 17-26 17-46H33v-38h35" id="bi"/><g id="y"><use transform="matrix(0.04248971193415638,0,0,0.04248971193415638,0,0)" xlink:href="#bg"/><use transform="matrix(0.04248971193415638,0,0,0.04248971193415638,8.497942386831275,0)" xlink:href="#bh"/><use transform="matrix(0.04248971193415638,0,0,0.04248971193415638,16.99588477366255,0)" xlink:href="#bi"/></g><path fill="#a9afb8" d="M101-251c68 0 85 55 85 127S166 4 100 4C33 4 14-52 14-124c0-73 17-127 87-127zm-1 229c47 0 54-49 54-102s-4-102-53-102c-51 0-55 48-55 102 0 53 5 102 54 102" id="bj"/><path fill="#a9afb8" d="M126-127c33 6 58 20 58 59 0 88-139 92-164 29-3-8-5-16-6-25l32-3c6 27 21 44 54 44 32 0 52-15 52-46 0-38-36-46-79-43v-28c39 1 72-4 72-42 0-27-17-43-46-43-28 0-47 15-49 41l-32-3c6-42 35-63 81-64 48-1 79 21 79 65 0 36-21 52-52 59" id="bk"/><g id="z"><use transform="matrix(0.04248971193415638,0,0,0.04248971193415638,0,0)" xlink:href="#bg"/><use transform="matrix(0.04248971193415638,0,0,0.04248971193415638,8.497942386831275,0)" xlink:href="#bj"/><use transform="matrix(0.04248971193415638,0,0,0.04248971193415638,16.99588477366255,0)" xlink:href="#bg"/><use transform="matrix(0.04248971193415638,0,0,0.04248971193415638,25.493827160493822,0)" xlink:href="#bk"/></g><path fill="#333" d="M11 0l48-248h34L50-27h125l-5 27H11" id="bl"/><g id="A"><use transform="matrix(0.05,0,0,0.05,0,0)" xlink:href="#S"/><use transform="matrix(0.05,0,0,0.05,12.950000000000001,0)" xlink:href="#O"/><use transform="matrix(0.05,0,0,0.05,26.950000000000003,0)" xlink:href="#bl"/><use transform="matrix(0.05,0,0,0.05,36.95,0)" xlink:href="#ar"/></g><g id="B"><use transform="matrix(0.05,0,0,0.05,0,0)" xlink:href="#W"/><use transform="matrix(0.05,0,0,0.05,12,0)" xlink:href="#X"/><use transform="matrix(0.05,0,0,0.05,24,0)" xlink:href="#Y"/><use transform="matrix(0.05,0,0,0.05,29.950000000000003,0)" xlink:href="#P"/><use transform="matrix(0.05,0,0,0.05,42.9,0)" xlink:href="#P"/><use transform="matrix(0.05,0,0,0.05,55.85,0)" xlink:href="#U"/><use transform="matrix(0.05,0,0,0.05,60.85,0)" xlink:href="#V"/><use transform="matrix(0.05,0,0,0.05,73.8,0)" xlink:href="#Z"/></g><path fill="#333" d="M194-120c59 52 2 134-86 124-53-6-90-18-98-63l31-7c8 30 29 43 70 43 46 0 84-17 71-62-32-43-135-20-137-98-3-89 178-90 191-16l-30 9c-8-48-127-53-127 5 0 53 81 35 115 65" id="bm"/><g id="C"><use transform="matrix(0.05,0,0,0.05,0,0)" xlink:href="#P"/><use transform="matrix(0.05,0,0,0.05,12.950000000000001,0)" xlink:href="#bm"/><use transform="matrix(0.05,0,0,0.05,24.950000000000003,0)" xlink:href="#ar"/><use transform="matrix(0.05,0,0,0.05,36.95,0)" xlink:href="#S"/></g><g id="D"><use transform="matrix(0.05,0,0,0.05,0,0)" xlink:href="#W"/><use transform="matrix(0.05,0,0,0.05,12,0)" xlink:href="#X"/><use transform="matrix(0.05,0,0,0.05,24,0)" xlink:href="#Y"/><use transform="matrix(0.05,0,0,0.05,29.950000000000003,0)" xlink:href="#P"/><use transform="matrix(0.05,0,0,0.05,42.9,0)" xlink:href="#P"/><use transform="matrix(0.05,0,0,0.05,55.85,0)" xlink:href="#U"/><use transform="matrix(0.05,0,0,0.05,60.85,0)" xlink:href="#V"/><use transform="matrix(0.05,0,0,0.05,73.8,0)" xlink:href="#Z"/></g><path fill="#333" d="M6 0l50-261h32L37 0H6" id="bn"/><g id="E"><use transform="matrix(0.05,0,0,0.05,0,0)" xlink:href="#ad"/><use transform="matrix(0.05,0,0,0.05,10,0)" xlink:href="#ac"/><use transform="matrix(0.05,0,0,0.05,24.950000000000003,0)" xlink:href="#ab"/><use transform="matrix(0.05,0,0,0.05,34.95,0)" xlink:href="#al"/><use transform="matrix(0.05,0,0,0.05,38.900000000000006,0)" xlink:href="#bn"/></g><g id="F"><use transform="matrix(0.05,0,0,0.05,0,0)" xlink:href="#ag"/><use transform="matrix(0.05,0,0,0.05,9,0)" xlink:href="#am"/><use transform="matrix(0.05,0,0,0.05,19,0)" xlink:href="#ac"/><use transform="matrix(0.05,0,0,0.05,33.95,0)" xlink:href="#au"/><use transform="matrix(0.05,0,0,0.05,43.95,0)" xlink:href="#ab"/><use transform="matrix(0.05,0,0,0.05,53.95,0)" xlink:href="#an"/><use transform="matrix(0.05,0,0,0.05,63.95,0)" xlink:href="#aw"/><use transform="matrix(0.05,0,0,0.05,72.95,0)" xlink:href="#aq"/><use transform="matrix(0.05,0,0,0.05,82.95,0)" xlink:href="#al"/><use transform="matrix(0.05,0,0,0.05,86.9,0)" xlink:href="#as"/></g><g id="G"><use transform="matrix(0.05,0,0,0.05,0,0)" xlink:href="#af"/><use transform="matrix(0.05,0,0,0.05,5.95,0)" xlink:href="#am"/><use transform="matrix(0.05,0,0,0.05,15.949999999999998,0)" xlink:href="#bn"/><use transform="matrix(0.05,0,0,0.05,19.9,0)" xlink:href="#ad"/><use transform="matrix(0.05,0,0,0.05,29.899999999999995,0)" xlink:href="#aq"/><use transform="matrix(0.05,0,0,0.05,39.9,0)" xlink:href="#al"/><use transform="matrix(0.05,0,0,0.05,43.85,0)" xlink:href="#as"/></g><path fill="#333" d="M52-101C46-14 166-7 216-51l9-45h-74l6-28h105l-18 87C217-12 181 4 130 4 60 4 18-31 18-101c0-106 78-167 188-146 30 6 48 27 59 54l-34 9c-10-26-31-41-67-40-75 1-107 50-112 123" id="bo"/><g id="H"><use transform="matrix(0.05,0,0,0.05,0,0)" xlink:href="#Q"/><use transform="matrix(0.05,0,0,0.05,12.950000000000001,0)" xlink:href="#W"/><use transform="matrix(0.05,0,0,0.05,24.950000000000003,0)" xlink:href="#bm"/><use transform="matrix(0.05,0,0,0.05,36.95,0)" xlink:href="#aq"/><use transform="matrix(0.05,0,0,0.05,46.95,0)" xlink:href="#S"/><use transform="matrix(0.05,0,0,0.05,59.900000000000006,0)" xlink:href="#ap"/><use transform="matrix(0.05,0,0,0.05,70.55000000000001,0)" xlink:href="#R"/><use transform="matrix(0.05,0,0,0.05,81.50000000000001,0)" xlink:href="#U"/><use transform="matrix(0.05,0,0,0.05,86.50000000000001,0)" xlink:href="#Q"/><use transform="matrix(0.05,0,0,0.05,99.45000000000002,0)" xlink:href="#bo"/></g><g id="I"><use transform="matrix(0.05,0,0,0.05,0,0)" xlink:href="#av"/><use transform="matrix(0.05,0,0,0.05,10,0)" xlink:href="#at"/><use transform="matrix(0.05,0,0,0.05,19,0)" xlink:href="#ad"/><use transform="matrix(0.05,0,0,0.05,29,0)" xlink:href="#af"/><use transform="matrix(0.05,0,0,0.05,34.95,0)" xlink:href="#aq"/><use transform="matrix(0.05,0,0,0.05,44.95,0)" xlink:href="#al"/><use transform="matrix(0.05,0,0,0.05,48.900000000000006,0)" xlink:href="#as"/></g><g id="J"><use transform="matrix(0.05,0,0,0.05,0,0)" xlink:href="#as"/><use transform="matrix(0.05,0,0,0.05,10,0)" xlink:href="#ab"/><use transform="matrix(0.05,0,0,0.05,20,0)" xlink:href="#ah"/><use transform="matrix(0.05,0,0,0.05,25,0)" xlink:href="#ad"/></g><g id="K"><use transform="matrix(0.05,0,0,0.05,0,0)" xlink:href="#R"/><use transform="matrix(0.05,0,0,0.05,10.8,0)" xlink:href="#al"/><use transform="matrix(0.05,0,0,0.05,14.75,0)" xlink:href="#ac"/><use transform="matrix(0.05,0,0,0.05,29.700000000000003,0)" xlink:href="#ad"/><use transform="matrix(0.05,0,0,0.05,39.7,0)" xlink:href="#at"/><use transform="matrix(0.05,0,0,0.05,48.7,0)" xlink:href="#ah"/><use transform="matrix(0.05,0,0,0.05,53.7,0)" xlink:href="#ab"/><use transform="matrix(0.05,0,0,0.05,63.7,0)" xlink:href="#ac"/><use transform="matrix(0.05,0,0,0.05,78.65,0)" xlink:href="#au"/></g><g id="L"><use transform="matrix(0.05,0,0,0.05,0,0)" xlink:href="#at"/><use transform="matrix(0.05,0,0,0.05,9,0)" xlink:href="#ag"/><use transform="matrix(0.05,0,0,0.05,18,0)" xlink:href="#am"/><use transform="matrix(0.05,0,0,0.05,28,0)" xlink:href="#af"/><use transform="matrix(0.05,0,0,0.05,33.95,0)" xlink:href="#ad"/></g><g id="M"><use transform="matrix(0.05,0,0,0.05,0,0)" xlink:href="#al"/><use transform="matrix(0.05,0,0,0.05,3.95,0)" xlink:href="#an"/><use transform="matrix(0.05,0,0,0.05,13.949999999999998,0)" xlink:href="#ah"/></g></defs></g></svg>